HIERARCHY
ROOT Hips
{
	OFFSET 0.00000 0.00000 0.00000
	CHANNELS 6 Xposition Yposition Zposition Zrotation Yrotation Xrotation 
	JOINT LHipJoint
	{
		OFFSET 0 0 0
		CHANNELS 3 Zrotation Yrotation Xrotation
		JOINT LeftHip
		{
			OFFSET 1.57358 -1.76629 0.73362
			CHANNELS 3 Zrotation Yrotation Xrotation
			JOINT LeftKnee
			{
				OFFSET 2.40600 -6.61045 0.00000
				CHANNELS 3 Zrotation Yrotation Xrotation
				JOINT LeftAnkle
				{
					OFFSET 2.66168 -7.31291 0.00000
					CHANNELS 3 Zrotation Yrotation Xrotation
					JOINT LeftToe
					{
						OFFSET 0.20870 -0.57341 2.12506
						CHANNELS 3 Zrotation Yrotation Xrotation
						End Site
						{
							OFFSET 0.00000 -0.00000 1.10557
						}
					}
				}
			}
		}
	}
	JOINT RHipJoint
	{
		OFFSET 0 0 0
		CHANNELS 3 Zrotation Yrotation Xrotation
		JOINT RightHip
		{
			OFFSET -1.49299 -1.76629 0.73362
			CHANNELS 3 Zrotation Yrotation Xrotation
			JOINT RightKnee
			{
				OFFSET -2.43663 -6.69460 0.00000
				CHANNELS 3 Zrotation Yrotation Xrotation
				JOINT RightAnkle
				{
					OFFSET -2.62959 -7.22474 0.00000
					CHANNELS 3 Zrotation Yrotation Xrotation
					JOINT RightToe
					{
						OFFSET -0.25784 -0.70841 2.21862
						CHANNELS 3 Zrotation Yrotation Xrotation
						End Site
						{
							OFFSET -0.00000 -0.00000 1.16452
						}
					}
				}
			}
		}
	}
	JOINT lowerback
	{
		OFFSET 0 0 0
		CHANNELS 3 Zrotation Yrotation Xrotation
		JOINT Chest
		{
			OFFSET -0.00034 2.12399 -0.25450
			CHANNELS 3 Zrotation Yrotation Xrotation
			JOINT Chest2
			{
				OFFSET 0.05594 2.14379 -0.03318
				CHANNELS 3 Zrotation Yrotation Xrotation
				JOINT lowerneck
				{
					OFFSET 0 0 0
					CHANNELS 3 Zrotation Yrotation Xrotation
					JOINT Neck
					{
						OFFSET -0.09835 1.62725 0.24211
						CHANNELS 3 Zrotation Yrotation Xrotation
						JOINT Head
						{
							OFFSET 0.10849 1.66041 -0.22648
							CHANNELS 3 Zrotation Yrotation Xrotation
							End Site
							{
								OFFSET 0.04385 1.68267 -0.10541
							}
						}
					}
				}
				JOINT LeftCollar
				{
					OFFSET 0 0 0
					CHANNELS 3 Zrotation Yrotation Xrotation
					JOINT LeftShoulder
					{
						OFFSET 3.29108 0.79398 -0.68179
CHANNELS 3 Zrotation Xrotation Yrotation
						JOINT LeftElbow
						{
OFFSET 0 -5.153100 -0.000000
CHANNELS 3 Zrotation Xrotation Yrotation
							JOINT LeftWrist
							{
OFFSET 0 -3.751380 -0.000000
CHANNELS 3 Zrotation Xrotation Yrotation
								JOINT lhand
								{
									OFFSET 0 0 0
CHANNELS 3 Zrotation Xrotation Yrotation
									JOINT LFingers
									{
OFFSET 0 -0.529170 0.000000
CHANNELS 3 Zrotation Xrotation Yrotation
										End Site
										{
OFFSET 0 -0.426630 0.000000
										}
									}
								}
								JOINT LThumb
								{
OFFSET 0 0.000000 0.000000
CHANNELS 3 Zrotation Xrotation Yrotation
									End Site
									{
OFFSET 0 -0.433150 0.433150
									}
								}
							}
						}
					}
				}
				JOINT RightCollar
				{
					OFFSET 0 0 0
					CHANNELS 3 Zrotation Yrotation Xrotation
					JOINT RightShoulder
					{
						OFFSET -3.07414 1.06285 -0.44338
CHANNELS 3 Zrotation Xrotation Yrotation
						JOINT RightElbow
						{
OFFSET 0 -5.296130 0.000000
CHANNELS 3 Zrotation Xrotation Yrotation
							JOINT RightWrist
							{
OFFSET 0 -3.761440 -0.000000
CHANNELS 3 Zrotation Xrotation Yrotation
								JOINT rhand
								{
									OFFSET 0 0 0
CHANNELS 3 Zrotation Xrotation Yrotation
									JOINT RFingers
									{
OFFSET 0 -0.747320 0.000000
CHANNELS 3 Zrotation Xrotation Yrotation
										End Site
										{
OFFSET 0 -0.602510 0.000000
										}
									}
								}
								JOINT RThumb
								{
OFFSET 0 0.000000 0.000000
CHANNELS 3 Zrotation Xrotation Yrotation
									End Site
									{
OFFSET 0 -0.611710 0.611710
									}
								}
							}
						}
					}
				}
			}
		}
	}
}
MOTION
Frames: 12
Frame Time: 0.008333333333333333
-11.211900 16.661100 -35.628000 -0.912000 -2.315700 -2.537300 0.000000 0.000000 0.000000 -16.388600 -11.480500 -29.403600 15.658300 19.541900 77.212000 0.375900 -3.790200 -10.903100 0.712600 -5.395000 -15.038800 0.000000 0.000000 0.000000 24.244700 5.210300 -22.982100 -7.354800 -15.623500 50.203800 -0.695600 -6.545600 -19.472000 -0.081700 1.843500 -5.073500 -1.258600 -3.696000 13.129300 4.540400 -4.791200 0.417300 6.419000 -2.247400 -6.413700 -12.101900 1.008300 -9.166300 2.421900 2.834100 14.554200 2.948500 0.895500 5.733800 -0.000000 0.000000 0.000000 -0.318300 24.099600 -32.204300 63.543000 -57.182400 37.304300 23.890100 -9.215600 -5.845400 0.000000 0.000000 0.000000 -7.125000 0.000000 0.000000 -2.380100 36.359800 -0.506000 -0.000000 0.000000 0.000000 -14.669500 15.206600 55.447700 -111.429700 -58.191600 -78.446000 -14.718000 -14.189500 -23.823900 0.000000 0.000000 0.000000 7.125000 0.000000 -0.000000 8.966700 5.693800 8.135400
-11.212786 16.660243 -35.466218 -0.980141 -2.282487 -2.628430 0.000000 0.000000 0.000000 -16.343094 -11.647808 -29.905317 15.431037 19.488711 76.529649 0.374423 -3.761803 -10.881795 0.721672 -5.428154 -15.134037 0.000000 0.000000 0.000000 24.303946 5.036639 -22.415523 -7.444068 -15.693679 50.532831 -0.734428 -6.432190 -19.772457 -0.097243 1.996595 -5.496852 -1.079147 -3.505023 13.164139 4.472525 -4.515565 0.509966 6.193776 -2.119806 -6.382141 -11.879719 0.816171 -9.277257 2.390401 2.560976 14.595717 2.885619 0.771245 5.787727 0.000000 0.000000 0.000000 0.037414 24.345154 -32.629927 63.643379 -57.204976 37.388693 23.810613 -9.118738 -6.139711 0.000000 0.000000 0.000000 -7.125000 0.000000 0.000000 -2.470137 36.675445 -0.504463 0.000000 0.000000 0.000000 -15.162027 15.811769 55.543233 -113.180493 -57.831986 -79.924408 -14.840925 -14.376488 -23.732327 0.000000 0.000000 0.000000 7.125000 0.000000 0.000000 8.885499 5.769712 8.047166
-11.213673 16.659386 -35.304436 -1.048281 -2.249273 -2.719560 0.000000 0.000000 0.000000 -16.297588 -11.815116 -30.407033 15.203773 19.435523 75.847297 0.372945 -3.733406 -10.860490 0.730743 -5.461309 -15.229274 0.000000 0.000000 0.000000 24.363192 4.862978 -21.848945 -7.533337 -15.763859 50.861862 -0.773255 -6.318780 -20.072914 -0.112786 2.149689 -5.920204 -0.899695 -3.314046 13.198977 4.404651 -4.239929 0.602633 5.968551 -1.992213 -6.350583 -11.657538 0.624042 -9.388215 2.358901 2.287853 14.637233 2.822738 0.646991 5.841655 0.000000 0.000000 0.000000 0.393128 24.590709 -33.055555 63.743758 -57.227551 37.473085 23.731125 -9.021875 -6.434021 0.000000 0.000000 0.000000 -7.125000 0.000000 0.000000 -2.560173 36.991090 -0.502927 0.000000 0.000000 0.000000 -15.654554 16.416937 55.638765 -114.931286 -57.472371 -81.402816 -14.963850 -14.563475 -23.640754 0.000000 0.000000 0.000000 7.125000 0.000000 0.000000 8.804297 5.845624 7.958932
-11.214559 16.658529 -35.142654 -1.116422 -2.216060 -2.810690 0.000000 0.000000 0.000000 -16.252082 -11.982424 -30.908750 14.976510 19.382334 75.164946 0.371468 -3.705010 -10.839185 0.739815 -5.494463 -15.324512 0.000000 0.000000 0.000000 24.422439 4.689317 -21.282368 -7.622605 -15.834038 51.190893 -0.812083 -6.205370 -20.373370 -0.128329 2.302784 -6.343556 -0.720242 -3.123070 13.233816 4.336776 -3.964294 0.695299 5.743327 -1.864619 -6.319024 -11.435358 0.431912 -9.499172 2.327402 2.014729 14.678750 2.759858 0.522736 5.895582 0.000000 0.000000 0.000000 0.748842 24.836263 -33.481182 63.844136 -57.250127 37.557478 23.651638 -8.925013 -6.728332 0.000000 0.000000 0.000000 -7.125000 0.000000 0.000000 -2.650210 37.306735 -0.501390 0.000000 0.000000 0.000000 -16.147081 17.022106 55.734298 -116.682079 -57.112757 -82.881224 -15.086775 -14.750463 -23.549181 0.000000 0.000000 0.000000 7.125000 0.000000 0.000000 8.723096 5.921536 7.870698
-11.206766 16.671083 -34.962620 -1.162744 -2.566239 -3.009710 0.000000 0.000000 0.000000 -16.310627 -11.795945 -31.131889 14.694947 19.306799 74.312562 0.373520 -3.540062 -10.878385 0.728961 -5.453701 -15.207627 0.000000 0.000000 0.000000 24.436083 4.680739 -20.517698 -7.719680 -15.908258 51.545199 -0.832495 -6.034858 -20.454153 -0.176681 2.640123 -7.282720 -0.393376 -2.837614 13.071235 4.189544 -3.559114 0.963585 5.309529 -1.682689 -6.006377 -11.217162 0.236890 -9.756616 2.355079 1.744899 14.708512 2.716247 0.405706 5.968598 0.000000 0.000000 0.000000 1.206368 24.916970 -33.960472 64.041815 -57.293556 37.723884 23.487025 -9.114407 -6.802367 0.000000 0.000000 0.000000 -7.125000 0.000000 0.000000 -2.795201 37.377303 -0.525512 0.000000 0.000000 0.000000 -16.072844 16.964231 55.499428 -117.666997 -56.897790 -83.710418 -15.233647 -14.960670 -23.582694 0.000000 0.000000 0.000000 7.125000 0.000000 0.000000 8.634325 5.867885 7.797094
-11.193557 16.692004 -34.771200 -1.195455 -3.155599 -3.276037 0.000000 0.000000 0.000000 -16.434084 -11.388757 -31.181236 14.379509 19.217324 73.354103 0.377775 -3.289928 -10.955331 0.705676 -5.366826 -14.958408 0.000000 0.000000 0.000000 24.421279 4.775149 -19.629448 -7.821625 -15.984997 51.915274 -0.841419 -5.828722 -20.397891 -0.245501 3.092404 -8.543675 0.025455 -2.493218 12.785494 3.992806 -3.073118 1.341431 4.745611 -1.466861 -5.518371 -11.001452 0.040062 -10.105444 2.419673 1.477124 14.730939 2.684659 0.293182 6.053523 0.000000 0.000000 0.000000 1.727410 24.894838 -34.473241 64.300193 -57.349995 37.941456 23.269306 -9.482384 -6.738984 0.000000 0.000000 0.000000 -7.125000 0.000000 0.000000 -2.974476 37.294979 -0.565639 0.000000 0.000000 0.000000 -15.645030 16.492713 55.058435 -118.174121 -56.773063 -84.134597 -15.395458 -15.185362 -23.694242 0.000000 0.000000 0.000000 7.125000 0.000000 0.000000 8.540831 5.733407 7.732618
-11.180349 16.712925 -34.579780 -1.228166 -3.744959 -3.542364 0.000000 0.000000 0.000000 -16.557541 -10.981568 -31.230583 14.064071 19.127849 72.395643 0.382031 -3.039794 -11.032277 0.682391 -5.279951 -14.709190 0.000000 0.000000 0.000000 24.406475 4.869559 -18.741197 -7.923569 -16.061736 52.285349 -0.850343 -5.622587 -20.341629 -0.314321 3.544685 -9.804631 0.444286 -2.148821 12.499753 3.796067 -2.587121 1.719277 4.181693 -1.251034 -5.030365 -10.785743 -0.156765 -10.454273 2.484268 1.209348 14.753367 2.653071 0.180659 6.138447 0.000000 0.000000 0.000000 2.248451 24.872706 -34.986009 64.558572 -57.406434 38.159027 23.051587 -9.850361 -6.675601 0.000000 0.000000 0.000000 -7.125000 0.000000 0.000000 -3.153752 37.212655 -0.605767 0.000000 0.000000 0.000000 -15.217216 16.021196 54.617442 -118.681245 -56.648336 -84.558777 -15.557270 -15.410055 -23.805790 0.000000 0.000000 0.000000 7.125000 0.000000 0.000000 8.447337 5.598928 7.668141
-11.177216 16.725448 -34.408771 -1.269618 -3.910205 -3.696486 0.000000 0.000000 0.000000 -16.603207 -10.935207 -31.481659 13.755135 19.036369 71.453680 0.378209 -2.894329 -10.977859 0.671817 -5.240244 -14.595347 0.000000 0.000000 0.000000 24.414046 4.748106 -18.152398 -8.035727 -16.144766 52.690222 -0.848870 -5.494933 -20.237557 -0.396365 4.014933 -11.122623 0.655811 -2.010739 12.343589 3.710986 -2.389418 1.930940 3.918622 -1.166358 -4.748317 -10.718920 -0.240963 -10.517478 2.548021 1.079563 14.696293 2.651846 0.128917 6.139325 0.000000 0.000000 0.000000 2.480132 25.044006 -35.186691 64.932791 -57.485064 38.474724 22.833711 -10.234436 -6.610281 0.000000 0.000000 0.000000 -7.125000 0.000000 0.000000 -3.332740 37.128448 -0.646607 0.000000 0.000000 0.000000 -15.045895 15.624444 54.503785 -119.240745 -56.506599 -85.025880 -15.746926 -15.727822 -23.972069 0.000000 0.000000 0.000000 7.125000 0.000000 0.000000 8.340920 5.404716 7.600112
-11.207504 16.710112 -34.305467 -1.340063 -2.668634 -3.478412 0.000000 0.000000 0.000000 -16.390836 -12.085736 -32.401882 13.467768 18.938236 70.566434 0.347596 -3.096062 -10.487696 0.703405 -5.356993 -14.930553 0.000000 0.000000 0.000000 24.495839 3.910622 -18.556897 -8.181759 -16.248661 53.210525 -0.812909 -5.627609 -19.974894 -0.522275 4.544781 -12.629812 0.179684 -2.557016 12.617245 3.996284 -3.148007 1.591360 4.653482 -1.516724 -5.149448 -11.145966 0.048443 -9.633246 2.608981 1.407501 14.375507 2.751339 0.278790 5.861415 0.000000 0.000000 0.000000 1.751979 25.856935 -34.352161 65.691261 -57.637302 39.115913 22.615312 -10.671913 -6.538535 0.000000 0.000000 0.000000 -7.125000 0.000000 0.000000 -3.510774 37.037998 -0.689808 0.000000 0.000000 0.000000 -15.725380 15.475693 55.475926 -119.973980 -56.308442 -85.635362 -16.028944 -16.354325 -24.319894 0.000000 0.000000 0.000000 7.125000 0.000000 0.000000 8.191638 5.012361 7.520300
-11.237792 16.694775 -34.202162 -1.410509 -1.427063 -3.260339 0.000000 0.000000 0.000000 -16.178466 -13.236266 -33.322104 13.180402 18.840103 69.679188 0.316983 -3.297794 -9.997534 0.734993 -5.473742 -15.265760 0.000000 0.000000 0.000000 24.577631 3.073137 -18.961397 -8.327791 -16.352556 53.730829 -0.776947 -5.760285 -19.712231 -0.648184 5.074628 -14.137001 -0.296443 -3.103293 12.890900 4.281582 -3.906595 1.251780 5.388342 -1.867089 -5.550579 -11.573012 0.337848 -8.749015 2.669941 1.735438 14.054720 2.850831 0.428664 5.583504 0.000000 0.000000 0.000000 1.023827 26.669864 -33.517631 66.449731 -57.789540 39.757102 22.396914 -11.109390 -6.466790 0.000000 0.000000 0.000000 -7.125000 0.000000 0.000000 -3.688808 36.947548 -0.733009 0.000000 0.000000 0.000000 -16.404865 15.326942 56.448067 -120.707216 -56.110285 -86.244845 -16.310962 -16.980829 -24.667718 0.000000 0.000000 0.000000 7.125000 0.000000 0.000000 8.042355 4.620006 7.440487
-11.268080 16.679439 -34.098858 -1.480954 -0.185492 -3.042265 0.000000 0.000000 0.000000 -15.966095 -14.386795 -34.242327 12.893036 18.741969 68.791943 0.286370 -3.499527 -9.507371 0.766581 -5.590491 -15.600967 0.000000 0.000000 0.000000 24.659423 2.235652 -19.365897 -8.473824 -16.456452 54.251132 -0.740986 -5.892961 -19.449567 -0.774093 5.604476 -15.644190 -0.772570 -3.649570 13.164556 4.566880 -4.665183 0.912200 6.123203 -2.217454 -5.951711 -12.000057 0.627253 -7.864783 2.730901 2.063376 13.733934 2.950323 0.578538 5.305593 0.000000 0.000000 0.000000 0.295674 27.482794 -32.683101 67.208201 -57.941777 40.398291 22.178515 -11.546866 -6.395044 0.000000 0.000000 0.000000 -7.125000 0.000000 0.000000 -3.866842 36.857097 -0.776210 0.000000 0.000000 0.000000 -17.084350 15.178191 57.420207 -121.440451 -55.912127 -86.854328 -16.592980 -17.607332 -25.015542 0.000000 0.000000 0.000000 7.125000 0.000000 0.000000 7.893072 4.227651 7.360675
-11.249612 16.706449 -33.901848 -1.429747 -0.752661 -3.173324 0.000000 0.000000 0.000000 -16.229869 -14.043961 -34.214119 12.503975 18.584462 67.565782 0.304012 -3.111752 -9.827007 0.846625 -5.851881 -16.360255 0.000000 0.000000 0.000000 24.432726 2.334052 -18.689645 -8.587402 -16.533652 54.650233 -0.718822 -5.436756 -18.912096 -0.955145 6.161143 -17.273407 -0.513096 -3.274311 12.892928 4.438363 -4.149047 1.071151 5.727353 -1.976885 -5.702683 -11.835016 0.402251 -7.976336 2.735317 1.754176 13.916461 2.908004 0.430941 5.404886 0.000000 0.000000 0.000000 0.755527 27.839813 -33.413054 67.972130 -58.078715 41.046993 22.012829 -12.050704 -6.402731 0.000000 0.000000 0.000000 -7.125000 0.000000 0.000000 -4.007439 36.855445 -0.804411 0.000000 0.000000 0.000000 -16.914720 15.192286 56.976163 -122.247884 -55.671374 -87.520330 -16.844122 -18.224670 -25.612156 0.000000 0.000000 0.000000 7.125000 0.000000 0.000000 7.790166 3.584653 7.353634
